<svg xmlns="http://www.w3.org/2000/svg" viewBox="0 0 384 512"><!--!Font Awesome Free 6.5.1 by @fontawesome - https://fontawesome.com License - https://fontawesome.com/license/free Copyright 2024 Fonticons, Inc.--><path d="M223.7 239l85.5-85.5c16-16 16-42 0-58l-85.5 85.5 85.5 85.5c16-16 16-42 0-58l-85.5 85.5-85.5-85.5c-16 16-16 42 0 58l85.5-85.5-85.5-85.5c-16-16-16-42 0-58l85.5 85.5zm-117.6 138L.4 484.7c-2.9 2.9-2.9 7.7 0 10.6l21.9 21.9c2.9 2.9 7.7 2.9 10.6 0L160 391.7l-53.9-53.9c-2.9-2.9-7.7-2.9-10.6 0l11.6 11.6-85.5-85.5c-16-16-16-42 0-58l85.5 85.5 85.5-85.5c-16-16-42-16-58 0l85.5 85.5 85.5-85.5c-16-16-42-16-58 0l-85.5 85.5L106.1 377z"/></svg>