<svg xmlns="http://www.w3.org/2000/svg" viewBox="0 0 100 100"><path fill="#E10098" d="M50 6.90308L87.323 28.4515V71.5484L50 93.0968L12.677 71.5484V28.4515L50 6.90308ZM16.8647 30.8693V69.1306L50 88.2612L83.1353 69.1306V30.8693L50 11.7387L16.8647 30.8693Z"/><path fill="#E10098" d="M50 0L92.6863 25V75L50 100L7.31371 75V25L50 0ZM11.5019 28.0154V71.9846L50 93.9693L88.4981 71.9846V28.0154L50 6.03079L11.5019 28.0154Z"/><path fill="#E10098" d="M50 11.5385L86.1553 32.6924V74.9999L50 96.1538L13.8447 74.9999V32.6924L50 11.5385ZM18.0673 35.2693V72.4229L50 90.7691L81.9327 72.4229V35.2693L50 16.9231L18.0673 35.2693Z"/><path fill="#E10098" d="M50 29.3994L79.8625 46.6997V81.3003L50 98.6006L20.1375 81.3003V46.6997L50 29.3994ZM24.3597 49.2766V78.7233L50 95.0235L75.6403 78.7233V49.2766L50 32.9764L24.3597 49.2766Z"/><path fill="#E10098" d="M92.5 25.0001L50 6.69873e-05L7.5 25.0001V75.0001L50 100L92.5 75.0001V25.0001ZM88.6364 71.8182L50 93.1819L11.3636 71.8182V28.1819L50 6.81823L88.6364 28.1819V71.8182Z"/><path fill="#E10098" d="M50 0L92.6863 25V75L50 100L7.31371 75V25L50 0ZM11.5019 28.0154V71.9846L50 93.9693L88.4981 71.9846V28.0154L50 6.03079L11.5019 28.0154Z"/><path fill="#E10098" d="M50 9.3078L85.7656 29.6539V70.3461L50 90.6922L14.2344 70.3461V29.6539L50 9.3078ZM18.4566 32.2308V67.7692L50 87.1153L81.5434 67.7692V32.2308L50 12.8847L18.4566 32.2308Z"/><path fill="#E10098" d="M50 16.9231L81.9327 35.2693V72.4229L50 90.7691L18.0673 72.4229V35.2693L50 16.9231ZM22.2895 37.8462V69.8461L50 86.5384L77.7105 69.8461V37.8462L50 21.1539L22.2895 37.8462Z"/><path fill="#E10098" d="M50 25.641L76.2981 41.0257V71.7948L50 87.1795L23.7019 71.7948V41.0257L50 25.641ZM27.9241 43.6026V69.218L50 82.9488L72.0759 69.218V43.6026L50 29.8718L27.9241 43.6026Z"/><path fill="#E10098" d="M50 32.9764L75.6403 49.2766V78.7233L50 95.0235L24.3597 78.7233V49.2766L50 32.9764ZM28.5819 51.8535V76.1464L50 90.2305L71.4181 76.1464V51.8535L50 37.7694L28.5819 51.8535Z"/><path fill="#E10098" d="M50 40.7052L70.5288 53.0259V77.6669L50 89.9876L29.4712 77.6669V53.0259L50 40.7052ZM33.6934 55.6028V75.09L50 85.3288L66.3066 75.09V55.6028L50 45.364L33.6934 55.6028Z"/><path fill="#E10098" d="M50 47.8975L66.3066 57.6028V77.09L50 86.7953L33.6934 77.09V57.6028L50 47.8975ZM37.9156 60.1797V74.5131L50 82.2184L62.0844 74.5131V60.1797L50 52.4744L37.9156 60.1797Z"/><path fill="#E10098" d="M50 55.6411L62.0844 62.1797V75.1797L50 81.7183L37.9156 75.1797V62.1797L50 55.6411ZM42.1378 64.7566V72.6028L50 77.5259L57.8622 72.6028V64.7566L50 59.8335L42.1378 64.7566Z"/><path fill="#E10098" d="M50 62.8335L57.8622 66.7566V74.6028L50 78.5259L42.1378 74.6028V66.7566L50 62.8335ZM46.36 69.3335V72.0259L50 74.0259L53.64 72.0259V69.3335L50 67.3335L46.36 69.3335Z"/></svg>